<svg xmlns="http://www.w3.org/2000/svg" viewBox="0 0 32 32"><defs><clipPath id="cl-b3-mountain"><rect x="6.5" y="9.5" width="13" height="13"/></clipPath></defs><rect x="3.5" y="6.5" width="19" height="19" rx="2" fill="none" stroke="#00ffff" stroke-width="2.2"/><g clip-path="url(#cl-b3-mountain)"><ellipse cx="8.65" cy="21.8" rx="2.3" ry="1.25" fill="#ffd84a" stroke="#a06a00" stroke-width=".7"/><ellipse cx="11.55" cy="21.8" rx="2.3" ry="1.25" fill="#ffd84a" stroke="#a06a00" stroke-width=".7"/><ellipse cx="14.45" cy="21.8" rx="2.3" ry="1.25" fill="#ffd84a" stroke="#a06a00" stroke-width=".7"/><ellipse cx="17.35" cy="21.8" rx="2.3" ry="1.25" fill="#ffd84a" stroke="#a06a00" stroke-width=".7"/><ellipse cx="8.65" cy="19.85" rx="2.3" ry="1.25" fill="#ffd84a" stroke="#a06a00" stroke-width=".7"/><ellipse cx="11.55" cy="19.85" rx="2.3" ry="1.25" fill="#ffd84a" stroke="#a06a00" stroke-width=".7"/><ellipse cx="14.45" cy="19.85" rx="2.3" ry="1.25" fill="#ffd84a" stroke="#a06a00" stroke-width=".7"/><ellipse cx="17.35" cy="19.85" rx="2.3" ry="1.25" fill="#ffd84a" stroke="#a06a00" stroke-width=".7"/><ellipse cx="10.1" cy="17.9" rx="2.3" ry="1.25" fill="#ffd84a" stroke="#a06a00" stroke-width=".7"/><ellipse cx="13" cy="17.9" rx="2.3" ry="1.25" fill="#ffd84a" stroke="#a06a00" stroke-width=".7"/><ellipse cx="15.9" cy="17.9" rx="2.3" ry="1.25" fill="#ffd84a" stroke="#a06a00" stroke-width=".7"/><ellipse cx="10.1" cy="15.95" rx="2.3" ry="1.25" fill="#ffd84a" stroke="#a06a00" stroke-width=".7"/><ellipse cx="13" cy="15.95" rx="2.3" ry="1.25" fill="#ffd84a" stroke="#a06a00" stroke-width=".7"/><ellipse cx="15.9" cy="15.95" rx="2.3" ry="1.25" fill="#ffd84a" stroke="#a06a00" stroke-width=".7"/><ellipse cx="11.55" cy="14" rx="2.3" ry="1.25" fill="#ffd84a" stroke="#a06a00" stroke-width=".7"/><ellipse cx="14.45" cy="14" rx="2.3" ry="1.25" fill="#ffd84a" stroke="#a06a00" stroke-width=".7"/><ellipse cx="13" cy="12.05" rx="2.3" ry="1.25" fill="#ffd84a" stroke="#a06a00" stroke-width=".7"/></g><path d="M22.5 6.5L28.5 4.5V27.5L22.5 25.5" fill="none" stroke="#00ffff" stroke-width="2.2" stroke-linejoin="round" stroke-linecap="round"/></svg>
