<svg xmlns="http://www.w3.org/2000/svg" viewBox="0 0 32 32"><defs><clipPath id="cl-f-pile"><rect x="11.5" y="12.5" width="12" height="14"/></clipPath></defs><polygon points="9,10 13,6 30,6 26,10" fill="rgba(0,255,255,.2)" stroke="#00ffff" stroke-width="1.3" stroke-linejoin="round"/><polygon points="26,10 30,6 30,25 26,29" fill="rgba(0,255,255,.08)" stroke="#00ffff" stroke-width="1.3" stroke-linejoin="round"/><rect x="9" y="10" width="17" height="19" fill="none" stroke="#00ffff" stroke-width="1.6"/><rect x="11.5" y="12.5" width="12" height="14" fill="#00141c" stroke="#00ffff" stroke-width=".7"/><g clip-path="url(#cl-f-pile)"><ellipse cx="14.7" cy="26.2" rx="1.9" ry="1" fill="#a06a00"/><rect x="12.8" y="25.2" width="3.8" height="1" fill="#a06a00"/><ellipse cx="14.7" cy="25.2" rx="1.9" ry="1" fill="#ffd84a"/><ellipse cx="17.5" cy="26.2" rx="1.9" ry="1" fill="#a06a00"/><rect x="15.6" y="25.2" width="3.8" height="1" fill="#a06a00"/><ellipse cx="17.5" cy="25.2" rx="1.9" ry="1" fill="#ffd84a"/><ellipse cx="20.3" cy="26.2" rx="1.9" ry="1" fill="#a06a00"/><rect x="18.4" y="25.2" width="3.8" height="1" fill="#a06a00"/><ellipse cx="20.3" cy="25.2" rx="1.9" ry="1" fill="#ffd84a"/><ellipse cx="16.1" cy="24.5" rx="1.9" ry="1" fill="#a06a00"/><rect x="14.2" y="23.5" width="3.8" height="1" fill="#a06a00"/><ellipse cx="16.1" cy="23.5" rx="1.9" ry="1" fill="#ffd84a"/><ellipse cx="18.9" cy="24.5" rx="1.9" ry="1" fill="#a06a00"/><rect x="17" y="23.5" width="3.8" height="1" fill="#a06a00"/><ellipse cx="18.9" cy="23.5" rx="1.9" ry="1" fill="#ffd84a"/><ellipse cx="17.5" cy="22.8" rx="1.9" ry="1" fill="#a06a00"/><rect x="15.6" y="21.8" width="3.8" height="1" fill="#a06a00"/><ellipse cx="17.5" cy="21.8" rx="1.9" ry="1" fill="#ffd84a"/></g><polygon points="9,10 3.5,7 3.5,30 9,29" fill="rgba(0,255,255,.12)" stroke="#00ffff" stroke-width="1.4" stroke-linejoin="round"/><circle cx="6.2" cy="19" r="1.6" fill="none" stroke="#00ffff" stroke-width="1"/></svg>
